<?xml version="1.0" standalone="no"?>
<!DOCTYPE svg PUBLIC "-//W3C//DTD SVG 20010904//EN"
 "http://www.w3.org/TR/2001/REC-SVG-20010904/DTD/svg10.dtd">
<svg version="1.0" xmlns="http://www.w3.org/2000/svg"
 width="299.000000pt" height="360.000000pt" viewBox="0 0 299.000000 360.000000"
 preserveAspectRatio="xMidYMid meet">

<g transform="translate(0.000000,360.000000) scale(0.100000,-0.100000)"
fill="#000000" stroke="none">
<path d="M1531 2860 c-16 -56 -37 -98 -64 -127 l-20 -22 32 2 c20 1 31 7 31
17 1 12 3 11 11 -2 5 -10 8 -59 7 -110 l-3 -93 -33 3 c-18 2 -40 -2 -48 -9 -8
-6 -15 -10 -17 -8 -1 2 -13 25 -26 51 -29 59 -88 100 -174 122 -65 16 -177 27
-177 17 0 -3 27 -17 59 -31 l59 -25 -59 -21 c-33 -12 -106 -53 -163 -92 -117
-79 -172 -110 -231 -127 l-40 -12 33 -20 33 -21 -30 -21 c-76 -54 -145 -65
-179 -28 -32 34 -29 82 7 118 25 24 26 29 11 29 -33 0 -52 -13 -65 -44 -11
-25 -15 -28 -19 -13 -17 50 -21 50 -24 3 -4 -64 29 -131 78 -157 19 -10 171
-73 338 -140 307 -124 330 -137 319 -180 -5 -19 29 -100 62 -149 10 -14 23
-43 29 -66 7 -23 23 -53 37 -68 16 -18 25 -39 25 -61 0 -25 7 -38 28 -54 24
-18 25 -19 5 -14 -27 6 -27 6 -8 -72 21 -86 19 -147 -4 -174 -28 -32 -17 -51
33 -52 l41 -1 -45 -10 c-25 -5 -49 -14 -54 -19 -10 -9 -25 -309 -16 -309 3 0
26 21 50 46 25 25 54 50 65 56 l20 11 -20 -23 c-20 -24 -12 -22 35 10 50 33
100 62 100 57 0 -3 -22 -19 -48 -36 -55 -35 -115 -93 -75 -72 12 6 25 16 28
21 3 6 14 10 24 10 10 0 24 6 30 14 6 7 24 16 39 19 18 4 51 34 100 91 68 80
72 87 72 134 0 54 -16 76 -46 66 -17 -6 -18 -6 -2 7 15 13 25 79 30 190 l1 27
39 -28 c110 -80 189 -55 159 49 -6 18 -9 36 -8 40 1 3 -10 22 -26 42 -15 20
-27 45 -27 56 0 34 -43 87 -88 109 -50 24 -62 38 -61 74 0 22 2 21 15 -10 14
-35 14 -35 10 -5 -2 17 -6 37 -10 46 -6 13 66 47 391 189 226 98 410 184 426
199 33 31 61 117 51 158 l-8 28 -9 -35 c-6 -21 -12 -29 -15 -20 -9 30 -46 60
-71 60 l-26 -1 21 -17 c27 -23 44 -55 44 -82 0 -32 -44 -70 -81 -70 -38 0
-108 32 -134 60 -17 19 -17 20 1 26 48 18 44 27 -19 48 -36 12 -108 52 -168
92 -111 76 -186 117 -233 128 -28 7 -27 8 34 37 35 16 61 31 59 33 -2 1 -43 0
-90 -4 -141 -12 -237 -66 -274 -152 -16 -40 -48 -52 -59 -22 -9 23 -6 176 4
199 6 13 9 15 9 5 1 -10 12 -15 30 -16 l30 -1 -24 31 c-27 36 -45 76 -55 126
l-7 35 -12 -45z m-225 -249 c62 -45 76 -66 76 -111 -1 -28 3 -40 14 -40 8 0
14 -2 14 -5 0 -14 -32 -65 -40 -65 -6 0 -10 -5 -10 -10 0 -6 -29 -44 -64 -84
-93 -106 -116 -151 -123 -236 -5 -59 -9 -70 -22 -65 -9 3 -134 54 -279 113
l-262 106 37 11 c21 7 54 20 73 30 37 19 190 125 190 132 0 3 -22 2 -50 0 -56
-6 -68 7 -16 17 18 4 82 32 142 62 60 31 127 65 148 76 76 39 172 16 207 -49
16 -29 29 -29 29 0 0 33 -34 83 -81 117 -23 16 -38 30 -32 30 5 0 28 -13 49
-29z m464 25 c0 -2 -18 -16 -41 -31 -44 -31 -69 -70 -69 -109 0 -24 2 -24 43
18 71 71 135 66 275 -18 41 -25 108 -57 150 -72 98 -35 109 -45 41 -38 l-54 5
30 -26 c64 -56 153 -111 214 -132 l64 -21 -34 -15 c-19 -8 -179 -78 -357 -156
-177 -77 -325 -141 -327 -141 -2 0 -7 26 -11 58 -4 36 -20 82 -44 126 -36 68
-46 79 -82 90 -16 5 -18 21 -18 146 l0 140 49 0 50 0 -5 33 c-6 44 13 76 70
115 47 31 56 36 56 28z m-294 -512 c-31 -33 -56 -65 -56 -72 0 -8 -8 -26 -19
-40 -24 -35 -34 -89 -18 -95 7 -2 9 -7 5 -11 -3 -4 -16 -2 -28 4 -19 10 -21
18 -17 48 4 23 1 44 -9 62 -15 25 -15 29 14 81 17 30 43 86 57 124 41 113 56
139 89 155 l31 15 3 -106 3 -106 -55 -59z"/>
</g>
</svg>
